<mxfile host="app.diagrams.net" modified="2021-02-19T19:21:14.015Z" agent="5.0 (Windows NT 10.0; Win64; x64) AppleWebKit/537.36 (KHTML, like Gecko) Chrome/85.0.4183.102 Safari/537.36" etag="Qsimna3b_RoH2rMqy6Ql" version="14.4.2" type="github" pages="2">
  <diagram name="Page-1" id="0783ab3e-0a74-02c8-0abd-f7b4e66b4bec">
    <mxGraphModel dx="1422" dy="794" grid="1" gridSize="10" guides="1" tooltips="1" connect="1" arrows="1" fold="1" page="1" pageScale="1" pageWidth="850" pageHeight="1100" background="#ffffff" math="0" shadow="0">
      <root>
        <mxCell id="0" />
        <mxCell id="1" parent="0" />
        <mxCell id="1c1d494c118603dd-1" value="Pool" style="swimlane;html=1;childLayout=stackLayout;startSize=20;rounded=0;shadow=0;comic=0;labelBackgroundColor=none;strokeWidth=1;fontFamily=Verdana;fontSize=12;align=center;" parent="1" vertex="1">
          <mxGeometry x="40" y="20" width="750" height="990" as="geometry" />
        </mxCell>
        <mxCell id="1c1d494c118603dd-2" value="Customer" style="swimlane;html=1;startSize=20;" parent="1c1d494c118603dd-1" vertex="1">
          <mxGeometry y="20" width="250" height="970" as="geometry" />
        </mxCell>
        <mxCell id="1c1d494c118603dd-7" value="Action" style="rounded=1;whiteSpace=wrap;html=1;shadow=0;comic=0;labelBackgroundColor=none;strokeWidth=1;fontFamily=Verdana;fontSize=12;align=center;arcSize=50;" parent="1c1d494c118603dd-2" vertex="1">
          <mxGeometry x="80" y="335" width="100" height="30" as="geometry" />
        </mxCell>
        <mxCell id="1c1d494c118603dd-35" style="edgeStyle=none;rounded=0;html=1;labelBackgroundColor=none;startArrow=none;startFill=0;startSize=5;endArrow=classicThin;endFill=1;endSize=5;jettySize=auto;orthogonalLoop=1;strokeWidth=1;fontFamily=Verdana;fontSize=12" parent="1c1d494c118603dd-2" source="1c1d494c118603dd-10" target="1c1d494c118603dd-7" edge="1">
          <mxGeometry relative="1" as="geometry" />
        </mxCell>
        <mxCell id="1c1d494c118603dd-10" value="Object" style="rounded=0;whiteSpace=wrap;html=1;shadow=0;comic=0;labelBackgroundColor=none;strokeWidth=1;fontFamily=Verdana;fontSize=12;align=center;arcSize=50;" parent="1c1d494c118603dd-2" vertex="1">
          <mxGeometry x="140" y="280" width="70" height="30" as="geometry" />
        </mxCell>
        <mxCell id="1c1d494c118603dd-47" style="edgeStyle=none;rounded=0;html=1;dashed=1;labelBackgroundColor=none;startArrow=none;startFill=0;startSize=5;endArrow=oval;endFill=0;endSize=5;jettySize=auto;orthogonalLoop=1;strokeWidth=1;fontFamily=Verdana;fontSize=12" parent="1c1d494c118603dd-2" source="1c1d494c118603dd-21" target="1c1d494c118603dd-10" edge="1">
          <mxGeometry relative="1" as="geometry" />
        </mxCell>
        <mxCell id="1c1d494c118603dd-21" value="Note" style="shape=note;whiteSpace=wrap;html=1;rounded=0;shadow=0;comic=0;labelBackgroundColor=none;strokeWidth=1;fontFamily=Verdana;fontSize=12;align=center;size=20;" parent="1c1d494c118603dd-2" vertex="1">
          <mxGeometry x="20" y="274" width="85" height="42" as="geometry" />
        </mxCell>
        <mxCell id="fylUbaiRWSBlvSD2-Fe6-2" value="" style="ellipse;html=1;shape=startState;fillColor=#000000;strokeColor=#ff0000;" vertex="1" parent="1c1d494c118603dd-2">
          <mxGeometry x="75" y="40" width="30" height="30" as="geometry" />
        </mxCell>
        <mxCell id="fylUbaiRWSBlvSD2-Fe6-3" value="" style="edgeStyle=orthogonalEdgeStyle;html=1;verticalAlign=bottom;endArrow=open;endSize=8;strokeColor=#ff0000;" edge="1" source="fylUbaiRWSBlvSD2-Fe6-2" parent="1c1d494c118603dd-2">
          <mxGeometry relative="1" as="geometry">
            <mxPoint x="90" y="90" as="targetPoint" />
          </mxGeometry>
        </mxCell>
        <mxCell id="Eo7OAkcIlS5WO51Id_is-1" value="Booking need" style="rounded=1;whiteSpace=wrap;html=1;shadow=0;comic=0;labelBackgroundColor=none;strokeWidth=1;fontFamily=Verdana;fontSize=12;align=center;arcSize=50;" vertex="1" parent="1c1d494c118603dd-2">
          <mxGeometry x="40" y="90" width="100" height="30" as="geometry" />
        </mxCell>
        <mxCell id="1c1d494c118603dd-3" value="DentEx" style="swimlane;html=1;startSize=20;" parent="1c1d494c118603dd-1" vertex="1">
          <mxGeometry x="250" y="20" width="250" height="970" as="geometry" />
        </mxCell>
        <mxCell id="1c1d494c118603dd-40" style="edgeStyle=none;rounded=0;html=1;labelBackgroundColor=none;startArrow=none;startFill=0;startSize=5;endArrow=classicThin;endFill=1;endSize=5;jettySize=auto;orthogonalLoop=1;strokeWidth=1;fontFamily=Verdana;fontSize=12" parent="1c1d494c118603dd-3" source="1c1d494c118603dd-11" target="1c1d494c118603dd-15" edge="1">
          <mxGeometry relative="1" as="geometry" />
        </mxCell>
        <mxCell id="1c1d494c118603dd-11" value="Action" style="rounded=1;whiteSpace=wrap;html=1;shadow=0;comic=0;labelBackgroundColor=none;strokeWidth=1;fontFamily=Verdana;fontSize=12;align=center;arcSize=50;" parent="1c1d494c118603dd-3" vertex="1">
          <mxGeometry x="64" y="450" width="100" height="30" as="geometry" />
        </mxCell>
        <mxCell id="1c1d494c118603dd-39" style="edgeStyle=none;rounded=0;html=1;labelBackgroundColor=none;startArrow=none;startFill=0;startSize=5;endArrow=classicThin;endFill=1;endSize=5;jettySize=auto;orthogonalLoop=1;strokeWidth=1;fontFamily=Verdana;fontSize=12" parent="1c1d494c118603dd-3" source="1c1d494c118603dd-12" target="1c1d494c118603dd-11" edge="1">
          <mxGeometry relative="1" as="geometry" />
        </mxCell>
        <mxCell id="1c1d494c118603dd-12" value="" style="whiteSpace=wrap;html=1;rounded=0;shadow=0;comic=0;labelBackgroundColor=none;strokeWidth=1;fillColor=#000000;fontFamily=Verdana;fontSize=12;align=center;rotation=0;" parent="1c1d494c118603dd-3" vertex="1">
          <mxGeometry x="40" y="410" width="147" height="10" as="geometry" />
        </mxCell>
        <mxCell id="1c1d494c118603dd-32" style="edgeStyle=orthogonalEdgeStyle;rounded=0;html=1;entryX=0.25;entryY=0;labelBackgroundColor=none;startArrow=none;startFill=0;startSize=5;endArrow=classicThin;endFill=1;endSize=5;jettySize=auto;orthogonalLoop=1;strokeWidth=1;fontFamily=Verdana;fontSize=12" parent="1c1d494c118603dd-3" source="1c1d494c118603dd-14" target="1c1d494c118603dd-12" edge="1">
          <mxGeometry relative="1" as="geometry" />
        </mxCell>
        <mxCell id="1c1d494c118603dd-14" value="Object" style="rounded=0;whiteSpace=wrap;html=1;shadow=0;comic=0;labelBackgroundColor=none;strokeWidth=1;fontFamily=Verdana;fontSize=12;align=center;arcSize=50;" parent="1c1d494c118603dd-3" vertex="1">
          <mxGeometry x="-40" y="365" width="70" height="30" as="geometry" />
        </mxCell>
        <mxCell id="1c1d494c118603dd-41" style="edgeStyle=none;rounded=0;html=1;labelBackgroundColor=none;startArrow=none;startFill=0;startSize=5;endArrow=classicThin;endFill=1;endSize=5;jettySize=auto;orthogonalLoop=1;strokeWidth=1;fontFamily=Verdana;fontSize=12" parent="1c1d494c118603dd-3" source="1c1d494c118603dd-15" target="1c1d494c118603dd-16" edge="1">
          <mxGeometry relative="1" as="geometry" />
        </mxCell>
        <mxCell id="1c1d494c118603dd-15" value="Object" style="rounded=0;whiteSpace=wrap;html=1;shadow=0;comic=0;labelBackgroundColor=none;strokeWidth=1;fontFamily=Verdana;fontSize=12;align=center;arcSize=50;" parent="1c1d494c118603dd-3" vertex="1">
          <mxGeometry x="125" y="510" width="70" height="30" as="geometry" />
        </mxCell>
        <mxCell id="1c1d494c118603dd-16" value="Action" style="rounded=1;whiteSpace=wrap;html=1;shadow=0;comic=0;labelBackgroundColor=none;strokeWidth=1;fontFamily=Verdana;fontSize=12;align=center;arcSize=50;" parent="1c1d494c118603dd-3" vertex="1">
          <mxGeometry x="85" y="580" width="100" height="30" as="geometry" />
        </mxCell>
        <mxCell id="1c1d494c118603dd-52" style="edgeStyle=none;rounded=0;html=1;dashed=1;labelBackgroundColor=none;startArrow=none;startFill=0;startSize=5;endArrow=oval;endFill=0;endSize=5;jettySize=auto;orthogonalLoop=1;strokeWidth=1;fontFamily=Verdana;fontSize=12" parent="1c1d494c118603dd-3" source="1c1d494c118603dd-23" target="1c1d494c118603dd-11" edge="1">
          <mxGeometry relative="1" as="geometry" />
        </mxCell>
        <mxCell id="1c1d494c118603dd-53" style="edgeStyle=none;rounded=0;html=1;dashed=1;labelBackgroundColor=none;startArrow=none;startFill=0;startSize=5;endArrow=oval;endFill=0;endSize=5;jettySize=auto;orthogonalLoop=1;strokeWidth=1;fontFamily=Verdana;fontSize=12" parent="1c1d494c118603dd-3" source="1c1d494c118603dd-23" target="1c1d494c118603dd-15" edge="1">
          <mxGeometry relative="1" as="geometry" />
        </mxCell>
        <mxCell id="1c1d494c118603dd-23" value="Note" style="shape=note;whiteSpace=wrap;html=1;rounded=0;shadow=0;comic=0;labelBackgroundColor=none;strokeWidth=1;fontFamily=Verdana;fontSize=12;align=center;size=20;" parent="1c1d494c118603dd-3" vertex="1">
          <mxGeometry x="10" y="510" width="90" height="55" as="geometry" />
        </mxCell>
        <mxCell id="1c1d494c118603dd-54" style="edgeStyle=none;rounded=0;html=1;dashed=1;labelBackgroundColor=none;startArrow=none;startFill=0;startSize=5;endArrow=oval;endFill=0;endSize=5;jettySize=auto;orthogonalLoop=1;strokeWidth=1;fontFamily=Verdana;fontSize=12" parent="1c1d494c118603dd-3" source="1c1d494c118603dd-24" target="1c1d494c118603dd-16" edge="1">
          <mxGeometry relative="1" as="geometry" />
        </mxCell>
        <mxCell id="1c1d494c118603dd-24" value="Note" style="shape=note;whiteSpace=wrap;html=1;rounded=0;shadow=0;comic=0;labelBackgroundColor=none;strokeWidth=1;fontFamily=Verdana;fontSize=12;align=center;size=20;" parent="1c1d494c118603dd-3" vertex="1">
          <mxGeometry x="40" y="648" width="105" height="55" as="geometry" />
        </mxCell>
        <mxCell id="1c1d494c118603dd-6" value="Action" style="rounded=1;whiteSpace=wrap;html=1;shadow=0;comic=0;labelBackgroundColor=none;strokeWidth=1;fontFamily=Verdana;fontSize=12;align=center;arcSize=50;" parent="1c1d494c118603dd-3" vertex="1">
          <mxGeometry x="25" y="260" width="100" height="30" as="geometry" />
        </mxCell>
        <mxCell id="60571a20871a0731-3" value="" style="whiteSpace=wrap;html=1;rounded=0;shadow=0;comic=0;labelBackgroundColor=none;strokeWidth=1;fillColor=#000000;fontFamily=Verdana;fontSize=12;align=center;rotation=0;" parent="1c1d494c118603dd-3" vertex="1">
          <mxGeometry x="38" y="110" width="147" height="10" as="geometry" />
        </mxCell>
        <mxCell id="Eo7OAkcIlS5WO51Id_is-2" style="edgeStyle=orthogonalEdgeStyle;rounded=0;orthogonalLoop=1;jettySize=auto;html=1;exitX=0.25;exitY=0;exitDx=0;exitDy=0;entryX=0.381;entryY=-0.2;entryDx=0;entryDy=0;entryPerimeter=0;" edge="1" parent="1c1d494c118603dd-3" source="60571a20871a0731-3" target="60571a20871a0731-3">
          <mxGeometry relative="1" as="geometry" />
        </mxCell>
        <mxCell id="Eo7OAkcIlS5WO51Id_is-4" value="" style="rounded=1;whiteSpace=wrap;html=1;shadow=0;comic=0;labelBackgroundColor=none;strokeWidth=1;fontFamily=Verdana;fontSize=12;align=center;arcSize=50;" vertex="1" parent="1c1d494c118603dd-3">
          <mxGeometry x="20" y="160" width="100" height="30" as="geometry" />
        </mxCell>
        <mxCell id="1c1d494c118603dd-4" value="Telecom&amp;nbsp;" style="swimlane;html=1;startSize=20;" parent="1c1d494c118603dd-1" vertex="1">
          <mxGeometry x="500" y="20" width="250" height="970" as="geometry" />
        </mxCell>
        <mxCell id="1c1d494c118603dd-38" style="edgeStyle=none;rounded=0;html=1;labelBackgroundColor=none;startArrow=none;startFill=0;startSize=5;endArrow=classicThin;endFill=1;endSize=5;jettySize=auto;orthogonalLoop=1;strokeWidth=1;fontFamily=Verdana;fontSize=12" parent="1c1d494c118603dd-4" source="1c1d494c118603dd-8" target="1c1d494c118603dd-13" edge="1">
          <mxGeometry relative="1" as="geometry" />
        </mxCell>
        <mxCell id="1c1d494c118603dd-8" value="Action" style="rounded=1;whiteSpace=wrap;html=1;shadow=0;comic=0;labelBackgroundColor=none;strokeWidth=1;fontFamily=Verdana;fontSize=12;align=center;arcSize=50;" parent="1c1d494c118603dd-4" vertex="1">
          <mxGeometry x="85" y="330" width="100" height="30" as="geometry" />
        </mxCell>
        <mxCell id="1c1d494c118603dd-37" style="edgeStyle=none;rounded=0;html=1;labelBackgroundColor=none;startArrow=none;startFill=0;startSize=5;endArrow=classicThin;endFill=1;endSize=5;jettySize=auto;orthogonalLoop=1;strokeWidth=1;fontFamily=Verdana;fontSize=12" parent="1c1d494c118603dd-4" source="1c1d494c118603dd-9" target="1c1d494c118603dd-8" edge="1">
          <mxGeometry relative="1" as="geometry" />
        </mxCell>
        <mxCell id="1c1d494c118603dd-9" value="Object" style="rounded=0;whiteSpace=wrap;html=1;shadow=0;comic=0;labelBackgroundColor=none;strokeWidth=1;fontFamily=Verdana;fontSize=12;align=center;arcSize=50;" parent="1c1d494c118603dd-4" vertex="1">
          <mxGeometry x="15" y="268" width="70" height="30" as="geometry" />
        </mxCell>
        <mxCell id="1c1d494c118603dd-13" value="Object" style="rounded=0;whiteSpace=wrap;html=1;shadow=0;comic=0;labelBackgroundColor=none;strokeWidth=1;fontFamily=Verdana;fontSize=12;align=center;arcSize=50;" parent="1c1d494c118603dd-4" vertex="1">
          <mxGeometry x="-35" y="360" width="70" height="30" as="geometry" />
        </mxCell>
        <mxCell id="1c1d494c118603dd-43" style="edgeStyle=none;rounded=0;html=1;labelBackgroundColor=none;startArrow=none;startFill=0;startSize=5;endArrow=classicThin;endFill=1;endSize=5;jettySize=auto;orthogonalLoop=1;strokeWidth=1;fontFamily=Verdana;fontSize=12" parent="1c1d494c118603dd-4" source="1c1d494c118603dd-17" target="1c1d494c118603dd-18" edge="1">
          <mxGeometry relative="1" as="geometry" />
        </mxCell>
        <mxCell id="1c1d494c118603dd-17" value="Object" style="rounded=0;whiteSpace=wrap;html=1;shadow=0;comic=0;labelBackgroundColor=none;strokeWidth=1;fontFamily=Verdana;fontSize=12;align=center;arcSize=50;" parent="1c1d494c118603dd-4" vertex="1">
          <mxGeometry x="-35" y="610" width="70" height="30" as="geometry" />
        </mxCell>
        <mxCell id="1c1d494c118603dd-44" style="edgeStyle=none;rounded=0;html=1;labelBackgroundColor=none;startArrow=none;startFill=0;startSize=5;endArrow=classicThin;endFill=1;endSize=5;jettySize=auto;orthogonalLoop=1;strokeWidth=1;fontFamily=Verdana;fontSize=12" parent="1c1d494c118603dd-4" source="1c1d494c118603dd-18" target="1c1d494c118603dd-19" edge="1">
          <mxGeometry relative="1" as="geometry" />
        </mxCell>
        <mxCell id="1c1d494c118603dd-18" value="Action" style="rounded=1;whiteSpace=wrap;html=1;shadow=0;comic=0;labelBackgroundColor=none;strokeWidth=1;fontFamily=Verdana;fontSize=12;align=center;arcSize=50;" parent="1c1d494c118603dd-4" vertex="1">
          <mxGeometry x="70" y="670" width="100" height="30" as="geometry" />
        </mxCell>
        <mxCell id="1c1d494c118603dd-45" style="edgeStyle=none;rounded=0;html=1;labelBackgroundColor=none;startArrow=none;startFill=0;startSize=5;endArrow=classicThin;endFill=1;endSize=5;jettySize=auto;orthogonalLoop=1;strokeWidth=1;fontFamily=Verdana;fontSize=12" parent="1c1d494c118603dd-4" source="1c1d494c118603dd-19" target="60571a20871a0731-5" edge="1">
          <mxGeometry relative="1" as="geometry" />
        </mxCell>
        <mxCell id="1c1d494c118603dd-19" value="Action" style="rounded=1;whiteSpace=wrap;html=1;shadow=0;comic=0;labelBackgroundColor=none;strokeWidth=1;fontFamily=Verdana;fontSize=12;align=center;arcSize=50;" parent="1c1d494c118603dd-4" vertex="1">
          <mxGeometry x="70" y="810" width="100" height="30" as="geometry" />
        </mxCell>
        <mxCell id="60571a20871a0731-5" value="" style="shape=mxgraph.bpmn.shape;html=1;verticalLabelPosition=bottom;labelBackgroundColor=#ffffff;verticalAlign=top;perimeter=ellipsePerimeter;outline=end;symbol=terminate;rounded=0;shadow=0;comic=0;strokeWidth=1;fontFamily=Verdana;fontSize=12;align=center;" parent="1c1d494c118603dd-4" vertex="1">
          <mxGeometry x="100" y="880" width="40" height="40" as="geometry" />
        </mxCell>
        <mxCell id="1c1d494c118603dd-49" style="edgeStyle=none;rounded=0;html=1;dashed=1;labelBackgroundColor=none;startArrow=none;startFill=0;startSize=5;endArrow=oval;endFill=0;endSize=5;jettySize=auto;orthogonalLoop=1;strokeWidth=1;fontFamily=Verdana;fontSize=12" parent="1c1d494c118603dd-4" source="1c1d494c118603dd-20" target="1c1d494c118603dd-9" edge="1">
          <mxGeometry relative="1" as="geometry" />
        </mxCell>
        <mxCell id="1c1d494c118603dd-20" value="Note" style="shape=note;whiteSpace=wrap;html=1;rounded=0;shadow=0;comic=0;labelBackgroundColor=none;strokeWidth=1;fontFamily=Verdana;fontSize=12;align=center;size=20;" parent="1c1d494c118603dd-4" vertex="1">
          <mxGeometry x="160" y="256" width="75" height="44" as="geometry" />
        </mxCell>
        <mxCell id="1c1d494c118603dd-50" style="edgeStyle=none;rounded=0;html=1;dashed=1;labelBackgroundColor=none;startArrow=none;startFill=0;startSize=5;endArrow=oval;endFill=0;endSize=5;jettySize=auto;orthogonalLoop=1;strokeWidth=1;fontFamily=Verdana;fontSize=12" parent="1c1d494c118603dd-4" source="1c1d494c118603dd-22" target="1c1d494c118603dd-8" edge="1">
          <mxGeometry relative="1" as="geometry" />
        </mxCell>
        <mxCell id="1c1d494c118603dd-51" style="edgeStyle=none;rounded=0;html=1;dashed=1;labelBackgroundColor=none;startArrow=none;startFill=0;startSize=5;endArrow=oval;endFill=0;endSize=5;jettySize=auto;orthogonalLoop=1;strokeWidth=1;fontFamily=Verdana;fontSize=12" parent="1c1d494c118603dd-4" source="1c1d494c118603dd-22" target="1c1d494c118603dd-13" edge="1">
          <mxGeometry relative="1" as="geometry" />
        </mxCell>
        <mxCell id="1c1d494c118603dd-22" value="Note" style="shape=note;whiteSpace=wrap;html=1;rounded=0;shadow=0;comic=0;labelBackgroundColor=none;strokeWidth=1;fontFamily=Verdana;fontSize=12;align=center;size=20;" parent="1c1d494c118603dd-4" vertex="1">
          <mxGeometry x="110" y="415" width="105" height="55" as="geometry" />
        </mxCell>
        <mxCell id="1c1d494c118603dd-56" style="edgeStyle=none;rounded=0;html=1;dashed=1;labelBackgroundColor=none;startArrow=none;startFill=0;startSize=5;endArrow=oval;endFill=0;endSize=5;jettySize=auto;orthogonalLoop=1;strokeWidth=1;fontFamily=Verdana;fontSize=12" parent="1c1d494c118603dd-4" source="1c1d494c118603dd-25" target="1c1d494c118603dd-18" edge="1">
          <mxGeometry relative="1" as="geometry" />
        </mxCell>
        <mxCell id="1c1d494c118603dd-57" style="edgeStyle=none;rounded=0;html=1;dashed=1;labelBackgroundColor=none;startArrow=none;startFill=0;startSize=5;endArrow=oval;endFill=0;endSize=5;jettySize=auto;orthogonalLoop=1;strokeWidth=1;fontFamily=Verdana;fontSize=12" parent="1c1d494c118603dd-4" source="1c1d494c118603dd-25" target="1c1d494c118603dd-17" edge="1">
          <mxGeometry relative="1" as="geometry" />
        </mxCell>
        <mxCell id="1c1d494c118603dd-25" value="Note" style="shape=note;whiteSpace=wrap;html=1;rounded=0;shadow=0;comic=0;labelBackgroundColor=none;strokeWidth=1;fontFamily=Verdana;fontSize=12;align=center;size=20;" parent="1c1d494c118603dd-4" vertex="1">
          <mxGeometry x="120" y="590" width="115" height="50" as="geometry" />
        </mxCell>
        <mxCell id="1c1d494c118603dd-58" style="edgeStyle=none;rounded=0;html=1;dashed=1;labelBackgroundColor=none;startArrow=none;startFill=0;startSize=5;endArrow=oval;endFill=0;endSize=5;jettySize=auto;orthogonalLoop=1;strokeWidth=1;fontFamily=Verdana;fontSize=12" parent="1c1d494c118603dd-4" source="1c1d494c118603dd-26" target="1c1d494c118603dd-19" edge="1">
          <mxGeometry relative="1" as="geometry" />
        </mxCell>
        <mxCell id="1c1d494c118603dd-26" value="Note" style="shape=note;whiteSpace=wrap;html=1;rounded=0;shadow=0;comic=0;labelBackgroundColor=none;strokeWidth=1;fontFamily=Verdana;fontSize=12;align=center;size=20;" parent="1c1d494c118603dd-4" vertex="1">
          <mxGeometry x="150" y="740" width="95" height="45" as="geometry" />
        </mxCell>
        <mxCell id="1c1d494c118603dd-31" style="edgeStyle=orthogonalEdgeStyle;rounded=0;html=1;entryX=0.75;entryY=0;labelBackgroundColor=none;startArrow=none;startFill=0;startSize=5;endArrow=classicThin;endFill=1;endSize=5;jettySize=auto;orthogonalLoop=1;strokeWidth=1;fontFamily=Verdana;fontSize=12" parent="1c1d494c118603dd-1" source="1c1d494c118603dd-13" target="1c1d494c118603dd-12" edge="1">
          <mxGeometry relative="1" as="geometry" />
        </mxCell>
        <mxCell id="1c1d494c118603dd-36" style="edgeStyle=none;rounded=0;html=1;labelBackgroundColor=none;startArrow=none;startFill=0;startSize=5;endArrow=classicThin;endFill=1;endSize=5;jettySize=auto;orthogonalLoop=1;strokeWidth=1;fontFamily=Verdana;fontSize=12" parent="1c1d494c118603dd-1" source="1c1d494c118603dd-7" target="1c1d494c118603dd-14" edge="1">
          <mxGeometry relative="1" as="geometry" />
        </mxCell>
        <mxCell id="1c1d494c118603dd-42" style="edgeStyle=none;rounded=0;html=1;labelBackgroundColor=none;startArrow=none;startFill=0;startSize=5;endArrow=classicThin;endFill=1;endSize=5;jettySize=auto;orthogonalLoop=1;strokeWidth=1;fontFamily=Verdana;fontSize=12" parent="1c1d494c118603dd-1" source="1c1d494c118603dd-16" target="1c1d494c118603dd-17" edge="1">
          <mxGeometry relative="1" as="geometry" />
        </mxCell>
        <mxCell id="1c1d494c118603dd-55" style="edgeStyle=none;rounded=0;html=1;dashed=1;labelBackgroundColor=none;startArrow=none;startFill=0;startSize=5;endArrow=oval;endFill=0;endSize=5;jettySize=auto;orthogonalLoop=1;strokeWidth=1;fontFamily=Verdana;fontSize=12" parent="1c1d494c118603dd-1" source="1c1d494c118603dd-24" target="1c1d494c118603dd-17" edge="1">
          <mxGeometry relative="1" as="geometry" />
        </mxCell>
        <mxCell id="1c1d494c118603dd-34" style="edgeStyle=none;rounded=0;html=1;labelBackgroundColor=none;startArrow=none;startFill=0;startSize=5;endArrow=classicThin;endFill=1;endSize=5;jettySize=auto;orthogonalLoop=1;strokeWidth=1;fontFamily=Verdana;fontSize=12" parent="1c1d494c118603dd-1" source="1c1d494c118603dd-6" target="1c1d494c118603dd-10" edge="1">
          <mxGeometry relative="1" as="geometry" />
        </mxCell>
        <mxCell id="1c1d494c118603dd-46" style="edgeStyle=none;rounded=0;html=1;labelBackgroundColor=none;startArrow=none;startFill=0;startSize=5;endArrow=oval;endFill=0;endSize=5;jettySize=auto;orthogonalLoop=1;strokeWidth=1;fontFamily=Verdana;fontSize=12;dashed=1;" parent="1c1d494c118603dd-1" source="1c1d494c118603dd-21" target="1c1d494c118603dd-6" edge="1">
          <mxGeometry relative="1" as="geometry" />
        </mxCell>
      </root>
    </mxGraphModel>
  </diagram>
  <diagram id="XKicjBqkZUmZc7X0LlZ3" name="Page-2">
    <mxGraphModel dx="1422" dy="1644" grid="1" gridSize="10" guides="1" tooltips="1" connect="1" arrows="1" fold="1" page="1" pageScale="1" pageWidth="1100" pageHeight="850" math="0" shadow="0">
      <root>
        <mxCell id="z2TaUVEMX1e-t13wkmzT-0" />
        <mxCell id="z2TaUVEMX1e-t13wkmzT-1" parent="z2TaUVEMX1e-t13wkmzT-0" />
        <mxCell id="4owVhDsK_cg7FhL75YFz-5" style="edgeStyle=orthogonalEdgeStyle;rounded=0;orthogonalLoop=1;jettySize=auto;html=1;" edge="1" parent="z2TaUVEMX1e-t13wkmzT-1" source="4owVhDsK_cg7FhL75YFz-0">
          <mxGeometry relative="1" as="geometry">
            <mxPoint x="585" y="-730" as="targetPoint" />
          </mxGeometry>
        </mxCell>
        <mxCell id="4owVhDsK_cg7FhL75YFz-0" value="" style="ellipse;html=1;shape=startState;fillColor=#000000;strokeColor=#ff0000;" vertex="1" parent="z2TaUVEMX1e-t13wkmzT-1">
          <mxGeometry x="570" y="-820" width="30" height="30" as="geometry" />
        </mxCell>
        <mxCell id="4owVhDsK_cg7FhL75YFz-6" style="edgeStyle=orthogonalEdgeStyle;rounded=0;orthogonalLoop=1;jettySize=auto;html=1;entryX=0.5;entryY=0;entryDx=0;entryDy=0;strokeColor=#FF0000;" edge="1" parent="z2TaUVEMX1e-t13wkmzT-1" source="4owVhDsK_cg7FhL75YFz-4">
          <mxGeometry relative="1" as="geometry">
            <mxPoint x="340" y="-640" as="targetPoint" />
          </mxGeometry>
        </mxCell>
        <mxCell id="4owVhDsK_cg7FhL75YFz-8" style="edgeStyle=orthogonalEdgeStyle;rounded=0;orthogonalLoop=1;jettySize=auto;html=1;exitX=1;exitY=0.5;exitDx=0;exitDy=0;strokeColor=#FF0000;" edge="1" parent="z2TaUVEMX1e-t13wkmzT-1" source="4owVhDsK_cg7FhL75YFz-4">
          <mxGeometry relative="1" as="geometry">
            <mxPoint x="790" y="-490" as="targetPoint" />
          </mxGeometry>
        </mxCell>
        <mxCell id="4owVhDsK_cg7FhL75YFz-4" value="Update Record" style="rhombus;whiteSpace=wrap;html=1;" vertex="1" parent="z2TaUVEMX1e-t13wkmzT-1">
          <mxGeometry x="545" y="-730" width="80" height="80" as="geometry" />
        </mxCell>
        <mxCell id="4owVhDsK_cg7FhL75YFz-7" value="Add Dicom image" style="text;html=1;align=center;verticalAlign=middle;resizable=0;points=[];autosize=1;" vertex="1" parent="z2TaUVEMX1e-t13wkmzT-1">
          <mxGeometry x="355" y="-720" width="110" height="20" as="geometry" />
        </mxCell>
        <mxCell id="4owVhDsK_cg7FhL75YFz-9" value="Add Perscriprion" style="text;html=1;align=center;verticalAlign=middle;resizable=0;points=[];autosize=1;" vertex="1" parent="z2TaUVEMX1e-t13wkmzT-1">
          <mxGeometry x="620" y="-710" width="100" height="20" as="geometry" />
        </mxCell>
        <mxCell id="4owVhDsK_cg7FhL75YFz-14" value="Open network location" style="rounded=1;whiteSpace=wrap;html=1;arcSize=40;fontColor=#000000;fillColor=#ffffc0;strokeColor=#ff0000;" vertex="1" parent="z2TaUVEMX1e-t13wkmzT-1">
          <mxGeometry x="280" y="-640" width="120" height="40" as="geometry" />
        </mxCell>
        <mxCell id="4owVhDsK_cg7FhL75YFz-15" value="" style="edgeStyle=orthogonalEdgeStyle;html=1;verticalAlign=bottom;endArrow=open;endSize=8;strokeColor=#ff0000;" edge="1" source="4owVhDsK_cg7FhL75YFz-14" parent="z2TaUVEMX1e-t13wkmzT-1">
          <mxGeometry relative="1" as="geometry">
            <mxPoint x="340" y="-490" as="targetPoint" />
            <Array as="points">
              <mxPoint x="340" y="-490" />
              <mxPoint x="340" y="-490" />
            </Array>
          </mxGeometry>
        </mxCell>
        <mxCell id="4owVhDsK_cg7FhL75YFz-24" style="edgeStyle=orthogonalEdgeStyle;rounded=0;orthogonalLoop=1;jettySize=auto;html=1;exitX=0.5;exitY=1;exitDx=0;exitDy=0;entryX=1;entryY=0.5;entryDx=0;entryDy=0;strokeColor=#FF0000;" edge="1" parent="z2TaUVEMX1e-t13wkmzT-1" source="4owVhDsK_cg7FhL75YFz-17" target="4owVhDsK_cg7FhL75YFz-20">
          <mxGeometry relative="1" as="geometry" />
        </mxCell>
        <mxCell id="4owVhDsK_cg7FhL75YFz-17" value="Enter prescription text" style="rounded=1;whiteSpace=wrap;html=1;arcSize=40;fontColor=#000000;fillColor=#ffffc0;strokeColor=#ff0000;" vertex="1" parent="z2TaUVEMX1e-t13wkmzT-1">
          <mxGeometry x="730" y="-490" width="120" height="40" as="geometry" />
        </mxCell>
        <mxCell id="4owVhDsK_cg7FhL75YFz-23" style="edgeStyle=orthogonalEdgeStyle;rounded=0;orthogonalLoop=1;jettySize=auto;html=1;exitX=0.5;exitY=1;exitDx=0;exitDy=0;entryX=0;entryY=0.5;entryDx=0;entryDy=0;strokeColor=#FF0000;" edge="1" parent="z2TaUVEMX1e-t13wkmzT-1" source="4owVhDsK_cg7FhL75YFz-18" target="4owVhDsK_cg7FhL75YFz-20">
          <mxGeometry relative="1" as="geometry" />
        </mxCell>
        <mxCell id="4owVhDsK_cg7FhL75YFz-18" value="Open network location" style="rounded=1;whiteSpace=wrap;html=1;arcSize=40;fontColor=#000000;fillColor=#ffffc0;strokeColor=#ff0000;" vertex="1" parent="z2TaUVEMX1e-t13wkmzT-1">
          <mxGeometry x="280" y="-490" width="120" height="40" as="geometry" />
        </mxCell>
        <mxCell id="4owVhDsK_cg7FhL75YFz-20" value="Save File" style="rounded=1;whiteSpace=wrap;html=1;arcSize=40;fontColor=#000000;fillColor=#ffffc0;strokeColor=#ff0000;" vertex="1" parent="z2TaUVEMX1e-t13wkmzT-1">
          <mxGeometry x="525" y="-425" width="120" height="40" as="geometry" />
        </mxCell>
        <mxCell id="4owVhDsK_cg7FhL75YFz-25" value="Update Patient Record Activity Diagram" style="text;html=1;align=center;verticalAlign=middle;resizable=0;points=[];autosize=1;" vertex="1" parent="z2TaUVEMX1e-t13wkmzT-1">
          <mxGeometry x="435" y="-580" width="230" height="20" as="geometry" />
        </mxCell>
      </root>
    </mxGraphModel>
  </diagram>
</mxfile>
